<svg width="171" height="79" viewBox="0 0 171 79" fill="none" xmlns="http://www.w3.org/2000/svg">
<path d="M9.36944 41.7856L18.3334 17.7736H25.4974L33.7774 41.7856H27.0814L19.5574 18.8896L22.9054 18.6016L15.4174 41.7856H9.36944ZM14.6614 37.0696L15.8854 32.4256H26.6134L27.2254 37.0696H14.6614ZM46.3868 42.3256C46.0748 42.3256 45.5708 42.2896 44.8748 42.2176C44.1788 42.1696 43.4468 42.0256 42.6788 41.7856C41.9108 41.5216 41.2508 41.0896 40.6988 40.4896L41.8148 38.6176V48.0136H35.9828V27.4936C35.9828 26.7016 36.2108 26.0176 36.6668 25.4416C37.1228 24.8656 37.7468 24.3856 38.5388 24.0016C39.3548 23.6176 40.3028 23.3296 41.3828 23.1376C42.4868 22.9456 43.6748 22.8496 44.9468 22.8496C46.8428 22.8496 48.4868 23.1616 49.8788 23.7856C51.2948 24.3856 52.3868 25.4056 53.1548 26.8456C53.9468 28.2856 54.3428 30.2536 54.3428 32.7496C54.3428 34.6456 54.0188 36.3136 53.3708 37.7536C52.7468 39.1936 51.8468 40.3216 50.6708 41.1376C49.4948 41.9296 48.0668 42.3256 46.3868 42.3256ZM44.4788 37.6096C45.3428 37.6096 46.0628 37.4656 46.6388 37.1776C47.2388 36.8656 47.6828 36.3496 47.9708 35.6296C48.2828 34.8856 48.4388 33.8536 48.4388 32.5336C48.4388 31.5016 48.3188 30.6376 48.0788 29.9416C47.8388 29.2216 47.4428 28.6936 46.8908 28.3576C46.3628 27.9976 45.6308 27.8176 44.6948 27.8176C43.5668 27.8176 42.7988 27.9256 42.3908 28.1416C42.0068 28.3336 41.8148 28.5976 41.8148 28.9336V36.9616C42.2228 37.1776 42.6668 37.3456 43.1468 37.4656C43.6508 37.5616 44.0948 37.6096 44.4788 37.6096ZM57.35 41.7856V25.5496C57.71 25.2136 58.322 24.8536 59.186 24.4696C60.05 24.0616 61.034 23.7136 62.138 23.4256C63.266 23.1136 64.37 22.9576 65.45 22.9576C66.77 22.9576 67.802 23.0536 68.546 23.2456C69.29 23.4376 69.854 23.6776 70.238 23.9656V28.2496C69.854 28.1536 69.35 28.0696 68.726 27.9976C68.102 27.9256 67.442 27.8776 66.746 27.8536C66.05 27.8296 65.39 27.8296 64.766 27.8536C64.166 27.8776 63.674 27.9136 63.29 27.9616V41.7856H57.35ZM80.6021 42.3256C78.7301 42.3256 77.0741 41.9536 75.6341 41.2096C74.2181 40.4416 73.1141 39.3616 72.3221 37.9696C71.5301 36.5536 71.1341 34.8856 71.1341 32.9656C71.1341 29.7736 71.9381 27.2896 73.5461 25.5136C75.1541 23.7376 77.4701 22.8496 80.4941 22.8496C82.5101 22.8496 84.1421 23.2816 85.3901 24.1456C86.6381 25.0096 87.5621 26.2936 88.1621 27.9976C88.7621 29.7016 89.0501 31.7896 89.0261 34.2616H75.2741L74.5541 30.6256H83.9861L83.2661 32.5696C83.2421 30.6256 82.9901 29.2696 82.5101 28.5016C82.0541 27.7096 81.2861 27.3136 80.2061 27.3136C79.6301 27.3136 79.1021 27.4816 78.6221 27.8176C78.1421 28.1296 77.7581 28.6456 77.4701 29.3656C77.2061 30.0856 77.0741 31.0576 77.0741 32.2816C77.0741 33.9376 77.4581 35.2096 78.2261 36.0976C79.0181 36.9616 80.3141 37.3936 82.1141 37.3936C82.7621 37.3936 83.4101 37.3216 84.0581 37.1776C84.7061 37.0096 85.3061 36.8176 85.8581 36.6016C86.4101 36.3856 86.8781 36.2176 87.2621 36.0976V41.1376C86.4221 41.4496 85.4621 41.7256 84.3821 41.9656C83.3261 42.2056 82.0661 42.3256 80.6021 42.3256ZM92.0336 25.0816C92.4656 24.8416 93.0656 24.6016 93.8336 24.3616C94.6016 24.1216 95.4536 23.9056 96.3896 23.7136C97.3256 23.4976 98.2736 23.3296 99.2336 23.2096C100.194 23.0656 101.07 22.9936 101.862 22.9936C103.47 22.9936 104.862 23.1856 106.038 23.5696C107.214 23.9536 108.114 24.6136 108.738 25.5496C109.386 26.4856 109.71 27.7696 109.71 29.4016V41.7856H103.77V30.7696C103.77 30.2896 103.698 29.8696 103.554 29.5096C103.434 29.1256 103.242 28.8136 102.978 28.5736C102.738 28.3336 102.402 28.1536 101.97 28.0336C101.562 27.9136 101.07 27.8536 100.494 27.8536C99.9896 27.8536 99.4856 27.9256 98.9816 28.0696C98.5016 28.1896 98.1656 28.3216 97.9736 28.4656V41.7856H92.0336V25.0816ZM119.224 42.3256C117.928 42.3256 116.812 42.1816 115.876 41.8936C114.94 41.6056 114.088 41.3176 113.32 41.0296V35.9176C113.752 36.2296 114.28 36.5656 114.904 36.9256C115.552 37.2616 116.26 37.5496 117.028 37.7896C117.82 38.0296 118.66 38.1496 119.548 38.1496C120.316 38.1496 120.832 38.0296 121.096 37.7896C121.36 37.5256 121.492 37.2256 121.492 36.8896C121.492 36.5536 121.312 36.2776 120.952 36.0616C120.592 35.8216 120.124 35.6176 119.548 35.4496C118.972 35.2816 118.36 35.1376 117.712 35.0176C117.16 34.9216 116.608 34.7536 116.056 34.5136C115.528 34.2496 115.036 33.9016 114.58 33.4696C114.148 33.0136 113.8 32.4616 113.536 31.8136C113.296 31.1416 113.176 30.3616 113.176 29.4736C113.176 28.2496 113.404 27.2416 113.86 26.4496C114.34 25.6336 114.964 24.9856 115.732 24.5056C116.524 24.0016 117.364 23.6416 118.252 23.4256C119.14 23.2096 120.004 23.1136 120.844 23.1376C122.428 23.1856 123.664 23.3536 124.552 23.6416C125.44 23.9296 126.232 24.3016 126.928 24.7576L126.964 29.2576C126.172 28.8256 125.356 28.4056 124.516 27.9976C123.7 27.5896 122.764 27.3856 121.708 27.3856C120.82 27.3856 120.208 27.5176 119.872 27.7816C119.536 28.0456 119.368 28.3816 119.368 28.7896C119.368 29.1976 119.488 29.5216 119.728 29.7616C119.992 29.9776 120.328 30.1576 120.736 30.3016C121.168 30.4216 121.624 30.5536 122.104 30.6976C122.704 30.8416 123.328 31.0096 123.976 31.2016C124.624 31.3936 125.224 31.6816 125.776 32.0656C126.328 32.4496 126.772 32.9776 127.108 33.6496C127.468 34.3216 127.648 35.2096 127.648 36.3136C127.624 37.8256 127.216 39.0256 126.424 39.9136C125.656 40.7776 124.636 41.4016 123.364 41.7856C122.092 42.1456 120.712 42.3256 119.224 42.3256ZM139.219 42.3256C137.347 42.3256 135.691 41.9536 134.251 41.2096C132.835 40.4416 131.731 39.3616 130.939 37.9696C130.147 36.5536 129.751 34.8856 129.751 32.9656C129.751 29.7736 130.555 27.2896 132.163 25.5136C133.771 23.7376 136.087 22.8496 139.111 22.8496C141.127 22.8496 142.759 23.2816 144.007 24.1456C145.255 25.0096 146.179 26.2936 146.779 27.9976C147.379 29.7016 147.667 31.7896 147.643 34.2616H133.891L133.171 30.6256H142.603L141.883 32.5696C141.859 30.6256 141.607 29.2696 141.127 28.5016C140.671 27.7096 139.903 27.3136 138.823 27.3136C138.247 27.3136 137.719 27.4816 137.239 27.8176C136.759 28.1296 136.375 28.6456 136.087 29.3656C135.823 30.0856 135.691 31.0576 135.691 32.2816C135.691 33.9376 136.075 35.2096 136.843 36.0976C137.635 36.9616 138.931 37.3936 140.731 37.3936C141.379 37.3936 142.027 37.3216 142.675 37.1776C143.323 37.0096 143.923 36.8176 144.475 36.6016C145.027 36.3856 145.495 36.2176 145.879 36.0976V41.1376C145.039 41.4496 144.079 41.7256 142.999 41.9656C141.943 42.2056 140.683 42.3256 139.219 42.3256ZM150.651 41.7856V25.5496C151.011 25.2136 151.623 24.8536 152.487 24.4696C153.351 24.0616 154.335 23.7136 155.439 23.4256C156.567 23.1136 157.671 22.9576 158.751 22.9576C160.071 22.9576 161.103 23.0536 161.847 23.2456C162.591 23.4376 163.155 23.6776 163.539 23.9656V28.2496C163.155 28.1536 162.651 28.0696 162.027 27.9976C161.403 27.9256 160.743 27.8776 160.047 27.8536C159.351 27.8296 158.691 27.8296 158.067 27.8536C157.467 27.8776 156.975 27.9136 156.591 27.9616V41.7856H150.651Z" fill="#FED001"/>
<path d="M167.775 48.3074L87.0535 75.2145C80.9168 61.997 50.5166 41.6514 3.5 54.6802" stroke="#FED001" stroke-width="6" stroke-linecap="round"/>
</svg>
